<svg width="35" height="23" viewBox="0 0 35 23" fill="none" xmlns="http://www.w3.org/2000/svg">
<path d="M3.5 0H31.5C33.4338 0 35 1.47023 35 3.28546V19.7145C35 21.5298 33.4338 23 31.5 23H3.5C1.56625 23 0 21.5298 0 19.7145V3.28546C0 1.47023 1.56625 0 3.5 0ZM19.25 5.30769C18.7859 5.30769 18.3408 5.49409 18.0126 5.82589C17.6844 6.15768 17.5 6.60769 17.5 7.07692C17.5 7.54615 17.6844 7.99616 18.0126 8.32796C18.3408 8.65975 18.7859 8.84615 19.25 8.84615H29.75C30.2141 8.84615 30.6593 8.65975 30.9874 8.32796C31.3156 7.99616 31.5 7.54615 31.5 7.07692C31.5 6.60769 31.3156 6.15768 30.9874 5.82589C30.6593 5.49409 30.2141 5.30769 29.75 5.30769H19.25ZM19.25 10.6154C18.7859 10.6154 18.3408 10.8018 18.0126 11.1336C17.6844 11.4654 17.5 11.9154 17.5 12.3846C17.5 12.8538 17.6844 13.3039 18.0126 13.6356C18.3408 13.9674 18.7859 14.1538 19.25 14.1538H29.75C30.2141 14.1538 30.6593 13.9674 30.9874 13.6356C31.3156 13.3039 31.5 12.8538 31.5 12.3846C31.5 11.9154 31.3156 11.4654 30.9874 11.1336C30.6593 10.8018 30.2141 10.6154 29.75 10.6154H19.25ZM5.25 5.30769C4.78587 5.30769 4.34075 5.49409 4.01256 5.82589C3.68437 6.15768 3.5 6.60769 3.5 7.07692V12.3846C3.5 12.8538 3.68437 13.3039 4.01256 13.6356C4.34075 13.9674 4.78587 14.1538 5.25 14.1538H10.5C10.9641 14.1538 11.4092 13.9674 11.7374 13.6356C12.0656 13.3039 12.25 12.8538 12.25 12.3846V7.07692C12.25 6.60769 12.0656 6.15768 11.7374 5.82589C11.4092 5.49409 10.9641 5.30769 10.5 5.30769H5.25Z" fill="white"/>
</svg>
