<svg width="15" height="15" viewBox="0 0 15 15" fill="none" xmlns="http://www.w3.org/2000/svg">
<path d="M13.125 1.25H11.25V0H10V1.25H5V0H3.75V1.25H1.875C1.37772 1.25 0.900805 1.44754 0.549175 1.79917C0.197544 2.15081 0 2.62772 0 3.125L0 15H15V3.125C15 2.62772 14.8025 2.15081 14.4508 1.79917C14.0992 1.44754 13.6223 1.25 13.125 1.25ZM1.25 3.125C1.25 2.95924 1.31585 2.80027 1.43306 2.68306C1.55027 2.56585 1.70924 2.5 1.875 2.5H13.125C13.2908 2.5 13.4497 2.56585 13.5669 2.68306C13.6842 2.80027 13.75 2.95924 13.75 3.125V5H1.25V3.125ZM1.25 13.75V6.25H13.75V13.75H1.25Z" fill="#FDC100"/>
<path d="M10.625 8.125H9.375V9.375H10.625V8.125Z" fill="#FDC100"/>
<path d="M8.125 8.125H6.875V9.375H8.125V8.125Z" fill="#FDC100"/>
<path d="M5.625 8.125H4.375V9.375H5.625V8.125Z" fill="#FDC100"/>
<path d="M10.625 10.625H9.375V11.875H10.625V10.625Z" fill="#FDC100"/>
<path d="M8.125 10.625H6.875V11.875H8.125V10.625Z" fill="#FDC100"/>
<path d="M5.625 10.625H4.375V11.875H5.625V10.625Z" fill="#FDC100"/>
</svg>
