<svg width="28" height="21" viewBox="0 0 28 21" fill="none" xmlns="http://www.w3.org/2000/svg">
<path d="M27.343 6.33333H24.0689L23.1589 4.16667C22.2237 1.93906 19.9919 0.5 17.4725 0.5H10.5272C8.00825 0.5 5.7759 1.93906 4.8402 4.16667L3.9302 6.33333H0.656599C0.229489 6.33333 -0.0838709 6.71562 0.0200355 7.1099L0.348161 8.3599C0.420895 8.63802 0.683396 8.83333 0.984724 8.83333H2.0823C1.34785 9.44427 0.874802 10.3323 0.874802 11.3333V13.8333C0.874802 14.6729 1.21168 15.4307 1.7498 16.0172V18.8333C1.7498 19.7536 2.53348 20.5 3.49981 20.5H5.24981C6.21614 20.5 6.99981 19.7536 6.99981 18.8333V17.1667H20.9998V18.8333C20.9998 19.7536 21.7835 20.5 22.7498 20.5H24.4998C25.4662 20.5 26.2498 19.7536 26.2498 18.8333V16.0172C26.788 15.4312 27.1248 14.6734 27.1248 13.8333V11.3333C27.1248 10.3323 26.6518 9.44427 25.9179 8.83333H27.0155C27.3168 8.83333 27.5793 8.63802 27.652 8.3599L27.9802 7.1099C28.0835 6.71562 27.7701 6.33333 27.343 6.33333ZM8.08973 5.40469C8.48841 4.45573 9.45364 3.83333 10.5272 3.83333H17.4725C18.546 3.83333 19.5112 4.45573 19.9099 5.40469L20.9998 8H6.99981L8.08973 5.40469ZM5.24981 13.8229C4.19981 13.8229 3.49981 13.1583 3.49981 12.1615C3.49981 11.1646 4.19981 10.5 5.24981 10.5C6.29981 10.5 7.87481 11.9953 7.87481 12.9922C7.87481 13.9891 6.29981 13.8229 5.24981 13.8229ZM22.7498 13.8229C21.6998 13.8229 20.1248 13.9891 20.1248 12.9922C20.1248 11.9953 21.6998 10.5 22.7498 10.5C23.7998 10.5 24.4998 11.1646 24.4998 12.1615C24.4998 13.1583 23.7998 13.8229 22.7498 13.8229Z" fill="#707070"/>
</svg>
