<svg width="24" height="17" viewBox="0 0 24 17" fill="none" xmlns="http://www.w3.org/2000/svg">
<path d="M3.6 7.28571C4.92375 7.28571 6 6.19665 6 4.85714C6 3.51763 4.92375 2.42857 3.6 2.42857C2.27625 2.42857 1.2 3.51763 1.2 4.85714C1.2 6.19665 2.27625 7.28571 3.6 7.28571ZM20.4 7.28571C21.7238 7.28571 22.8 6.19665 22.8 4.85714C22.8 3.51763 21.7238 2.42857 20.4 2.42857C19.0763 2.42857 18 3.51763 18 4.85714C18 6.19665 19.0763 7.28571 20.4 7.28571ZM21.6 8.5H19.2C18.54 8.5 17.9438 8.76942 17.5088 9.2058C19.02 10.0444 20.0925 11.5585 20.325 13.3571H22.8C23.4638 13.3571 24 12.8145 24 12.1429V10.9286C24 9.58906 22.9238 8.5 21.6 8.5ZM12 8.5C14.3213 8.5 16.2 6.59888 16.2 4.25C16.2 1.90112 14.3213 0 12 0C9.67875 0 7.8 1.90112 7.8 4.25C7.8 6.59888 9.67875 8.5 12 8.5ZM14.88 9.71428H14.5688C13.7888 10.0937 12.9225 10.3214 12 10.3214C11.0775 10.3214 10.215 10.0937 9.43125 9.71428H9.12C6.735 9.71428 4.8 11.6723 4.8 14.0857V15.1786C4.8 16.1842 5.60625 17 6.6 17H17.4C18.3938 17 19.2 16.1842 19.2 15.1786V14.0857C19.2 11.6723 17.265 9.71428 14.88 9.71428ZM6.49125 9.2058C6.05625 8.76942 5.46 8.5 4.8 8.5H2.4C1.07625 8.5 0 9.58906 0 10.9286V12.1429C0 12.8145 0.53625 13.3571 1.2 13.3571H3.67125C3.9075 11.5585 4.98 10.0444 6.49125 9.2058Z" fill="#707070"/>
</svg>
