<svg width="15" height="15" viewBox="0 0 15 15" fill="none" xmlns="http://www.w3.org/2000/svg">
<path d="M7.5 15C3.36437 15 0 11.6356 0 7.5C0 3.36437 3.36437 0 7.5 0C11.6356 0 15 3.36437 15 7.5C15 11.6356 11.6356 15 7.5 15ZM7.5 1.25C4.05375 1.25 1.25 4.05375 1.25 7.5C1.25 10.9462 4.05375 13.75 7.5 13.75C10.9462 13.75 13.75 10.9462 13.75 7.5C13.75 4.05375 10.9462 1.25 7.5 1.25ZM8.125 11.25V7.86062L9.9775 6.79125C10.2769 6.61875 10.3794 6.23625 10.2063 5.9375C10.0331 5.63812 9.64937 5.535 9.3525 5.70875L7.1875 6.95875C6.99375 7.07062 6.875 7.27688 6.875 7.5V11.25C6.875 11.5956 7.155 11.875 7.5 11.875C7.845 11.875 8.125 11.5956 8.125 11.25Z" fill="#FDC100"/>
</svg>
