<svg width="32" height="32" viewBox="0 0 32 32" fill="none" xmlns="http://www.w3.org/2000/svg">
<path d="M16 29C14.9391 29 13.9217 28.5786 13.1716 27.8284C12.4214 27.0783 12 26.0609 12 25C12 24.7348 12.1054 24.4804 12.2929 24.2929C12.4804 24.1054 12.7348 24 13 24H19C19.2652 24 19.5196 24.1054 19.7071 24.2929C19.8946 24.4804 20 24.7348 20 25C20 26.0609 19.5786 27.0783 18.8284 27.8284C18.0783 28.5786 17.0609 29 16 29ZM14.27 26C14.4458 26.3031 14.6982 26.5547 15.0018 26.7295C15.3054 26.9044 15.6496 26.9965 16 26.9965C16.3504 26.9965 16.6946 26.9044 16.9982 26.7295C17.3018 26.5547 17.5542 26.3031 17.73 26H14.27Z" fill="#707070"/>
<path d="M18 7H14C13.7348 7 13.4804 6.89464 13.2929 6.70711C13.1054 6.51957 13 6.26522 13 6C13 5.20435 13.3161 4.44129 13.8787 3.87868C14.4413 3.31607 15.2044 3 16 3C16.7956 3 17.5587 3.31607 18.1213 3.87868C18.6839 4.44129 19 5.20435 19 6C19 6.26522 18.8946 6.51957 18.7071 6.70711C18.5196 6.89464 18.2652 7 18 7Z" fill="#707070"/>
<path d="M27 26H5C4.73479 26 4.48043 25.8946 4.2929 25.7071C4.10536 25.5196 4 25.2652 4 25C3.99913 23.8707 4.27151 22.7579 4.79391 21.7566C5.3163 20.7553 6.0732 19.8953 7 19.25V14C6.99995 11.6234 7.93992 9.34327 9.61479 7.65716C11.2897 5.97105 13.5635 5.01584 15.94 5H16.05C18.4369 5 20.7261 5.94821 22.414 7.63604C24.1018 9.32387 25.05 11.6131 25.05 14V19.25C25.9676 19.9009 26.7148 20.7633 27.2283 21.7642C27.7418 22.7651 28.0065 23.8751 28 25C28 25.2652 27.8946 25.5196 27.7071 25.7071C27.5196 25.8946 27.2652 26 27 26ZM6.1 24H25.9C25.7584 23.3067 25.4712 22.6514 25.0575 22.0774C24.6437 21.5033 24.1129 21.0236 23.5 20.67C23.3474 20.5819 23.2208 20.455 23.133 20.3023C23.0452 20.1495 22.9993 19.9762 23 19.8V14C23 12.1435 22.2625 10.363 20.9497 9.05025C19.637 7.7375 17.8565 7 16 7C14.1435 7 12.363 7.7375 11.0503 9.05025C9.7375 10.363 9 12.1435 9 14V19.8C9.0007 19.9762 8.95483 20.1495 8.86702 20.3023C8.77922 20.455 8.65261 20.5819 8.5 20.67C7.88711 21.0236 7.35626 21.5033 6.94253 22.0774C6.52881 22.6514 6.24164 23.3067 6.1 24Z" fill="#707070"/>
</svg>
