<svg width="12" height="12" viewBox="0 0 12 12" fill="none" xmlns="http://www.w3.org/2000/svg">
<path d="M7.95 8.04006C7.85426 7.73514 7.66362 7.4689 7.40595 7.2803C7.14829 7.0917 6.83713 6.99063 6.518 6.99189H5.482C5.16287 6.99063 4.85171 7.0917 4.59405 7.2803C4.33638 7.4689 4.14574 7.73514 4.05 8.04006L3.714 9.10125C3.6025 9.65112 3.128 10.9051 4 10.9983V11.4991C4 11.6319 4.05268 11.7593 4.14645 11.8532C4.24022 11.9471 4.36739 11.9999 4.5 11.9999C4.63261 11.9999 4.75979 11.9471 4.85355 11.8532C4.94732 11.7593 5 11.6319 5 11.4991V10.9983H7V11.4991C7 11.6319 7.05268 11.7593 7.14645 11.8532C7.24022 11.9471 7.36739 11.9999 7.5 11.9999C7.63261 11.9999 7.75979 11.9471 7.85355 11.8532C7.94732 11.7593 8 11.6319 8 11.4991V10.9983C8.872 10.9041 8.4 9.65212 8.284 9.10074L7.95 8.04006ZM5.482 7.99348H6.518C6.62432 7.99358 6.72784 8.02762 6.81352 8.09066C6.89921 8.1537 6.9626 8.24246 6.9945 8.34404L7.2 8.99508H4.8L5.007 8.34404C5.03882 8.2427 5.10199 8.15412 5.18737 8.09111C5.27276 8.02809 5.37594 7.9939 5.482 7.99348ZM12 4.86951V9.55947C11.9993 10.1143 11.8149 10.6531 11.4758 11.0918C11.1368 11.5305 10.6621 11.8442 10.126 11.9838C10.0518 12.0032 9.97418 12.0052 9.89909 11.9897C9.82401 11.9742 9.75348 11.9416 9.69298 11.8945C9.63247 11.8473 9.58359 11.7869 9.55013 11.7178C9.51667 11.6487 9.49952 11.5728 9.5 11.4961V6.49109C9.5 6.09263 9.34197 5.71049 9.06066 5.42874C8.77936 5.14698 8.39783 4.9887 8 4.9887H4C3.60218 4.9887 3.22064 5.14698 2.93934 5.42874C2.65804 5.71049 2.5 6.09263 2.5 6.49109V11.4961C2.50048 11.5728 2.48333 11.6487 2.44987 11.7178C2.41641 11.7869 2.36753 11.8473 2.30702 11.8945C2.24652 11.9416 2.17599 11.9742 2.10091 11.9897C2.02582 12.0052 1.94819 12.0032 1.874 11.9838C1.33795 11.8442 0.863241 11.5305 0.524156 11.0918C0.185071 10.6531 0.000738444 10.1143 1.18114e-07 9.55947V4.86951C-0.000125593 4.45986 0.100097 4.05643 0.29188 3.6946C0.483662 3.33278 0.761147 3.02361 1.1 2.7942L4.6 0.428437C5.01311 0.149198 5.50012 0 5.9985 0C6.49688 0 6.98389 0.149198 7.397 0.428437L10.897 2.7942C11.2364 3.02327 11.5145 3.33229 11.7068 3.69414C11.8991 4.05598 11.9998 4.45959 12 4.86951Z" fill="#BDBEBD"/>
</svg>
