<svg width="26" height="25" viewBox="0 0 26 25" fill="none" xmlns="http://www.w3.org/2000/svg">
<path d="M1.44444 13.8889H10.1111C10.4942 13.8889 10.8616 13.7426 11.1325 13.4821C11.4034 13.2216 11.5556 12.8684 11.5556 12.5V1.38889C11.5556 1.02053 11.4034 0.667263 11.1325 0.406796C10.8616 0.146329 10.4942 0 10.1111 0H1.44444C1.06135 0 0.693954 0.146329 0.423068 0.406796C0.152182 0.667263 0 1.02053 0 1.38889V12.5C0 12.8684 0.152182 13.2216 0.423068 13.4821C0.693954 13.7426 1.06135 13.8889 1.44444 13.8889ZM0 23.6111C0 23.9795 0.152182 24.3327 0.423068 24.5932C0.693954 24.8537 1.06135 25 1.44444 25H10.1111C10.4942 25 10.8616 24.8537 11.1325 24.5932C11.4034 24.3327 11.5556 23.9795 11.5556 23.6111V18.0556C11.5556 17.6872 11.4034 17.3339 11.1325 17.0735C10.8616 16.813 10.4942 16.6667 10.1111 16.6667H1.44444C1.06135 16.6667 0.693954 16.813 0.423068 17.0735C0.152182 17.3339 0 17.6872 0 18.0556V23.6111ZM14.4444 23.6111C14.4444 23.9795 14.5966 24.3327 14.8675 24.5932C15.1384 24.8537 15.5058 25 15.8889 25H24.5556C24.9386 25 25.306 24.8537 25.5769 24.5932C25.8478 24.3327 26 23.9795 26 23.6111V13.8889C26 13.5205 25.8478 13.1673 25.5769 12.9068C25.306 12.6463 24.9386 12.5 24.5556 12.5H15.8889C15.5058 12.5 15.1384 12.6463 14.8675 12.9068C14.5966 13.1673 14.4444 13.5205 14.4444 13.8889V23.6111ZM15.8889 9.72222H24.5556C24.9386 9.72222 25.306 9.57589 25.5769 9.31543C25.8478 9.05496 26 8.70169 26 8.33333V1.38889C26 1.02053 25.8478 0.667263 25.5769 0.406796C25.306 0.146329 24.9386 0 24.5556 0H15.8889C15.5058 0 15.1384 0.146329 14.8675 0.406796C14.5966 0.667263 14.4444 1.02053 14.4444 1.38889V8.33333C14.4444 8.70169 14.5966 9.05496 14.8675 9.31543C15.1384 9.57589 15.5058 9.72222 15.8889 9.72222Z" fill="#707070"/>
</svg>
