<svg width="25" height="22" viewBox="0 0 25 22" fill="none" xmlns="http://www.w3.org/2000/svg">
<path d="M24.9521 4.50346L16.1833 12.8519C15.2056 13.7804 13.881 14.3019 12.5 14.3019C11.119 14.3019 9.7944 13.7804 8.81667 12.8519L0.0479167 4.50346C0.0333333 4.66015 0 4.80197 0 4.95767V16.8586C0.00165402 18.1732 0.550919 19.4336 1.52731 20.3632C2.50371 21.2927 3.82751 21.8157 5.20833 21.8173H19.7917C21.1725 21.8157 22.4963 21.2927 23.4727 20.3632C24.4491 19.4336 24.9983 18.1732 25 16.8586V4.95767C25 4.80197 24.9667 4.66015 24.9521 4.50346Z" fill="#37474F"/>
<path d="M14.7103 11.4506L24.2249 2.39109C23.764 1.66346 23.1139 1.0612 22.3374 0.64238C21.5608 0.223561 20.684 0.00232133 19.7916 0H5.20824C4.31576 0.00232133 3.43897 0.223561 2.66243 0.64238C1.88589 1.0612 1.23582 1.66346 0.774902 2.39109L10.2895 11.4506C10.8765 12.0073 11.6713 12.3199 12.4999 12.3199C13.3285 12.3199 14.1233 12.0073 14.7103 11.4506Z" fill="#37474F"/>
</svg>
