<svg width="165" height="165" viewBox="0 0 165 165" fill="none" xmlns="http://www.w3.org/2000/svg">
<circle cx="82.5" cy="82.5" r="82.5" fill="#FDC100" fill-opacity="0.28"/>
<path d="M125.749 60.8117L92.12 37.6331C88.1129 34.8831 82.77 34.8831 78.7629 37.6331L45.1343 60.8117C40.8129 63.7188 38.2986 68.5903 38.2986 73.776V76.6831V83.7545V117.933C38.2986 124.455 43.5629 129.719 50.0843 129.719H120.799C127.32 129.719 132.584 124.455 132.584 117.933V84.6974V76.6831V73.776C132.584 68.5903 130.07 63.7188 125.749 60.8117Z" fill="#263238"/>
<path d="M120.798 130.661H50.084C43.0126 130.661 37.3555 124.926 37.3555 117.933V73.7755C37.3555 68.2755 40.0269 63.1684 44.584 60.0255L78.2126 36.8469C80.334 35.3541 82.8483 34.5684 85.4412 34.5684C88.034 34.5684 90.5483 35.3541 92.6697 36.8469L126.298 60.0255C130.855 63.1684 133.527 68.2755 133.527 73.7755V117.933C133.527 124.926 127.87 130.661 120.798 130.661ZM85.4412 36.5326C83.2412 36.5326 81.1198 37.1612 79.3126 38.4184L45.684 61.5969C41.6769 64.3469 39.3198 68.9041 39.3198 73.7755V117.933C39.3198 123.904 44.1912 128.776 50.1626 128.776H120.877C126.848 128.776 131.72 123.904 131.72 117.933V73.7755C131.72 68.9041 129.363 64.3469 125.355 61.5969L91.5698 38.4969C89.7626 37.2398 87.6412 36.5326 85.4412 36.5326Z" fill="#707070"/>
<path opacity="0.2" d="M127.869 109.763V62.5413C127.241 61.9127 126.534 61.3627 125.748 60.8127L95.9695 40.3055H74.9123L45.1338 60.8127C44.348 61.3627 43.6409 61.9127 43.0123 62.5413V109.763C43.0123 118.013 49.6909 124.691 57.9409 124.691H112.941C121.191 124.691 127.869 118.013 127.869 109.763Z" fill="#707070"/>
<path d="M124.727 55.2335V109.762C124.727 116.284 119.463 121.548 112.941 121.548H57.9411C51.4197 121.548 46.1554 116.284 46.1554 109.762V55.2335C46.1554 48.7121 51.4197 43.4478 57.9411 43.4478H112.941C119.463 43.4478 124.727 48.7121 124.727 55.2335Z" fill="white"/>
<path opacity="0.2" d="M101.312 95.2257L93.2194 90.2757C90.8623 88.8614 88.1909 88.0757 85.4409 88.0757C82.6909 88.0757 80.0194 88.8614 77.6623 90.2757L69.5694 95.2257L46.1552 79.1186V109.761C46.1552 116.283 51.4194 121.547 57.9409 121.547H112.941C119.462 121.547 124.727 116.283 124.727 109.761V79.1186L101.312 95.2257Z" fill="#707070"/>
<path d="M110.033 83.9903H60.062C59.512 83.9903 59.1191 83.5189 59.1191 83.0475C59.1191 82.576 59.5906 82.1046 60.062 82.1046H110.033C110.583 82.1046 110.976 82.576 110.976 83.0475C110.976 83.5189 110.583 83.9903 110.033 83.9903Z" fill="#707070"/>
<path d="M110.033 65.1335H60.062C59.512 65.1335 59.1191 64.662 59.1191 64.1906C59.1191 63.7192 59.5906 63.2477 60.062 63.2477H110.033C110.583 63.2477 110.976 63.7192 110.976 64.1906C110.976 64.662 110.583 65.1335 110.033 65.1335Z" fill="#707070"/>
<path d="M110.033 74.4847H60.062C59.512 74.4847 59.1191 74.0132 59.1191 73.5418C59.1191 73.0704 59.512 72.5204 60.062 72.5204H110.033C110.583 72.5204 110.976 72.9918 110.976 73.4632C110.976 73.9347 110.583 74.4847 110.033 74.4847Z" fill="#707070"/>
<path d="M112.941 122.568H57.9409C50.8694 122.568 45.2123 116.832 45.2123 109.839V55.2322C45.2123 48.1607 50.948 42.5036 57.9409 42.5036H112.941C120.012 42.5036 125.669 48.2393 125.669 55.2322V109.761C125.669 116.832 120.012 122.568 112.941 122.568ZM57.9409 44.3893C51.9694 44.3893 47.098 49.2607 47.098 55.2322V109.761C47.098 115.732 51.9694 120.604 57.9409 120.604H112.941C118.912 120.604 123.784 115.732 123.784 109.761V55.2322C123.784 49.2607 118.912 44.3893 112.941 44.3893H57.9409Z" fill="#707070"/>
<path d="M85.4414 105.912C81.5914 105.912 77.8986 104.733 74.7557 102.612L38.2986 77.5477V118.091C38.2986 124.612 43.5629 129.876 50.0843 129.876H120.799C127.32 129.876 132.584 124.612 132.584 118.091V77.5477L96.1272 102.612C92.9843 104.812 89.2914 105.912 85.4414 105.912Z" fill="#FDC100"/>
<path d="M120.798 130.82H50.084C43.0126 130.82 37.3555 125.084 37.3555 118.091V77.5483C37.3555 77.1555 37.5912 76.8412 37.9055 76.684C38.2198 76.5269 38.6126 76.5269 38.9269 76.7626L75.384 101.827C78.3698 103.87 81.9055 104.97 85.5198 104.97C89.134 104.97 92.6698 103.87 95.6555 101.827L132.113 76.7626C132.427 76.5269 132.82 76.5269 133.134 76.684C133.448 76.8412 133.684 77.1555 133.684 77.5483V118.091C133.527 125.163 127.87 130.82 120.798 130.82ZM39.2412 79.434V118.091C39.2412 124.063 44.1126 128.934 50.084 128.934H120.798C126.77 128.934 131.641 124.063 131.641 118.091V79.434L96.6769 103.477C93.3769 105.755 89.4483 106.934 85.4412 106.934C81.434 106.934 77.5055 105.755 74.2055 103.477L39.2412 79.434Z" fill="#707070"/>
<path d="M50.0843 129.877H120.799C127.32 129.877 132.584 124.613 132.584 118.091L91.57 92.9486C87.7986 90.67 83.0843 90.67 79.3129 92.9486L38.2986 118.091C38.2986 124.613 43.5629 129.877 50.0843 129.877Z" fill="#FDC100"/>
<path d="M120.798 130.819H50.084C43.0126 130.819 37.3555 125.084 37.3555 118.091C37.3555 117.776 37.5126 117.462 37.8269 117.226L78.8412 92.0835C80.884 90.8264 83.1626 90.1978 85.5198 90.1978C87.8769 90.1978 90.1555 90.8264 92.1983 92.0835L133.213 117.226C133.527 117.384 133.684 117.698 133.684 118.091C133.527 125.162 127.87 130.819 120.798 130.819ZM39.3198 118.641C39.634 124.376 44.3483 128.934 50.084 128.934H120.798C126.613 128.934 131.327 124.376 131.563 118.641L91.0983 93.8121C87.7197 91.7692 83.2412 91.7692 79.784 93.8121L39.3198 118.641Z" fill="#707070"/>
<path d="M59.3961 53.7109L57.7861 50.1359H58.6561L59.9811 53.0859H60.0461L61.3711 50.1359H62.2411L60.6311 53.7109H59.3961ZM62.5893 53.7109V50.1359H66.5093V50.7859H63.3893V51.5759H66.2193V52.2259H63.3893V53.0609H66.5093V53.7109H62.5893Z" fill="#FDC100"/>
<path d="M67.057 53.7109V50.1359H67.857V53.0609H70.472V53.7109H67.057ZM72.6267 53.7359C71.99 53.7359 71.4967 53.5843 71.1467 53.2809C70.7967 52.9743 70.6217 52.5209 70.6217 51.9209C70.6217 51.3243 70.7967 50.8743 71.1467 50.5709C71.4967 50.2643 72.0017 50.1109 72.6617 50.1109H73.5617C74.2217 50.1109 74.7267 50.2643 75.0767 50.5709C75.4267 50.8743 75.6017 51.3243 75.6017 51.9209C75.6017 52.5209 75.4267 52.9743 75.0767 53.2809C74.7267 53.5843 74.23 53.7359 73.5867 53.7359H72.6267ZM72.7167 50.7609C72.3467 50.7609 72.0583 50.8276 71.8517 50.9609C71.645 51.0943 71.515 51.3059 71.4617 51.5959H74.7617C74.7083 51.3059 74.5783 51.0943 74.3717 50.9609C74.165 50.8276 73.8767 50.7609 73.5067 50.7609H72.7167ZM72.7317 53.0859H73.5067C73.88 53.0859 74.1683 53.0193 74.3717 52.8859C74.5783 52.7526 74.7083 52.5393 74.7617 52.2459H71.4617C71.515 52.5393 71.645 52.7526 71.8517 52.8859C72.0583 53.0193 72.3517 53.0859 72.7317 53.0859ZM78.0377 53.7359C77.3777 53.7359 76.8727 53.5843 76.5227 53.2809C76.1727 52.9743 75.9977 52.5209 75.9977 51.9209C75.9977 51.3243 76.1727 50.8726 76.5227 50.5659C76.8727 50.2593 77.3777 50.1076 78.0377 50.1109L79.8377 50.1209V50.7609H78.0927C77.6593 50.7609 77.3377 50.8526 77.1277 51.0359C76.9177 51.2193 76.8127 51.5143 76.8127 51.9209C76.8127 52.3276 76.9177 52.6243 77.1277 52.8109C77.3377 52.9943 77.6593 53.0859 78.0927 53.0859H79.8877V53.7359H78.0377Z" fill="black"/>
<rect x="110.5" y="31.5" width="23" height="23" rx="11.5" fill="#FDC100"/>
<rect x="110.5" y="31.5" width="23" height="23" rx="11.5" stroke="#707070"/>
<path d="M119.443 48V46.609H121.549V40.239H122.355L119.651 41.851V40.265L122.03 38.835H123.226V46.609H125.202V48H119.443Z" fill="white"/>
</svg>
