<svg width="20" height="18" viewBox="0 0 20 18" fill="none" xmlns="http://www.w3.org/2000/svg">
<path d="M19.9617 3.60352L12.9467 10.2823C12.1645 11.0251 11.1048 11.4423 10 11.4423C8.89521 11.4423 7.83552 11.0251 7.05333 10.2823L0.0383333 3.60352C0.0266667 3.72887 0 3.84233 0 3.96689V13.4876C0.00132321 14.5393 0.440735 15.5476 1.22185 16.2913C2.00296 17.0349 3.062 17.4533 4.16667 17.4546H15.8333C16.938 17.4533 17.997 17.0349 18.7782 16.2913C19.5593 15.5476 19.9987 14.5393 20 13.4876V3.96689C20 3.84233 19.9733 3.72887 19.9617 3.60352Z" fill="#BDBEBD"/>
<path d="M11.7685 9.16051L19.3801 1.91287C19.0114 1.33077 18.4913 0.848959 17.8701 0.513904C17.2489 0.178849 16.5474 0.00185707 15.8335 0H4.16678C3.4528 0.00185707 2.75137 0.178849 2.13014 0.513904C1.50891 0.848959 0.988849 1.33077 0.620117 1.91287L8.23178 9.16051C8.70143 9.60585 9.33727 9.85589 10.0001 9.85589C10.663 9.85589 11.2988 9.60585 11.7685 9.16051Z" fill="#BDBEBD"/>
</svg>
