<svg width="15" height="15" viewBox="0 0 15 15" fill="none" xmlns="http://www.w3.org/2000/svg">
<path d="M0.624688 2.96885H2.33383C2.46791 3.46242 2.7606 3.89814 3.16675 4.20878C3.57289 4.51942 4.06992 4.68772 4.58115 4.68772C5.09238 4.68772 5.58941 4.51942 5.99555 4.20878C6.40169 3.89814 6.69438 3.46242 6.82846 2.96885H14.3678C14.5335 2.96885 14.6924 2.903 14.8095 2.78579C14.9267 2.66859 14.9925 2.50962 14.9925 2.34386C14.9925 2.1781 14.9267 2.01914 14.8095 1.90193C14.6924 1.78472 14.5335 1.71887 14.3678 1.71887H6.82846C6.69438 1.2253 6.40169 0.789586 5.99555 0.478945C5.58941 0.168303 5.09238 0 4.58115 0C4.06992 0 3.57289 0.168303 3.16675 0.478945C2.7606 0.789586 2.46791 1.2253 2.33383 1.71887H0.624688C0.45901 1.71887 0.300118 1.78472 0.182967 1.90193C0.0658151 2.01914 0 2.1781 0 2.34386C0 2.50962 0.0658151 2.66859 0.182967 2.78579C0.300118 2.903 0.45901 2.96885 0.624688 2.96885ZM4.58083 1.25013C4.79705 1.25013 5.00841 1.31428 5.18819 1.43446C5.36796 1.55464 5.50808 1.72546 5.59082 1.92531C5.67356 2.12516 5.69521 2.34507 5.65303 2.55724C5.61085 2.7694 5.50673 2.96428 5.35385 3.11724C5.20096 3.2702 5.00617 3.37437 4.79411 3.41657C4.58205 3.45877 4.36224 3.43711 4.16248 3.35433C3.96273 3.27155 3.79199 3.13137 3.67187 2.9515C3.55175 2.77164 3.48763 2.56018 3.48763 2.34386C3.48796 2.05389 3.60324 1.77589 3.80819 1.57085C4.01313 1.3658 4.291 1.25047 4.58083 1.25013Z" fill="#BDBEBD"/>
<path d="M14.3678 6.875H12.6587C12.5248 6.38132 12.2322 5.94544 11.8261 5.63467C11.42 5.3239 10.923 5.15552 10.4117 5.15552C9.90038 5.15552 9.40332 5.3239 8.99721 5.63467C8.5911 5.94544 8.29853 6.38132 8.16467 6.875H0.624688C0.45901 6.875 0.300118 6.94085 0.182967 7.05806C0.0658151 7.17526 0 7.33423 0 7.49999C0 7.66574 0.0658151 7.82471 0.182967 7.94192C0.300118 8.05913 0.45901 8.12497 0.624688 8.12497H8.16467C8.29853 8.61866 8.5911 9.05454 8.99721 9.36531C9.40332 9.67608 9.90038 9.84446 10.4117 9.84446C10.923 9.84446 11.42 9.67608 11.8261 9.36531C12.2322 9.05454 12.5248 8.61866 12.6587 8.12497H14.3678C14.5335 8.12497 14.6924 8.05913 14.8095 7.94192C14.9267 7.82471 14.9925 7.66574 14.9925 7.49999C14.9925 7.33423 14.9267 7.17526 14.8095 7.05806C14.6924 6.94085 14.5335 6.875 14.3678 6.875ZM10.4117 8.59371C10.1955 8.59371 9.98409 8.52957 9.80432 8.40939C9.62454 8.28921 9.48442 8.11839 9.40168 7.91854C9.31894 7.71869 9.29729 7.49878 9.33947 7.28661C9.38165 7.07445 9.48577 6.87957 9.63866 6.72661C9.79154 6.57365 9.98633 6.46948 10.1984 6.42728C10.4105 6.38508 10.6303 6.40674 10.83 6.48952C11.0298 6.5723 11.2005 6.71248 11.3206 6.89235C11.4408 7.07221 11.5049 7.28367 11.5049 7.49999C11.5045 7.78996 11.3893 8.06796 11.1843 8.273C10.9794 8.47805 10.7015 8.59338 10.4117 8.59371Z" fill="#BDBEBD"/>
<path d="M14.3678 12.0311H6.82846C6.69438 11.5376 6.40169 11.1018 5.99555 10.7912C5.58941 10.4806 5.09238 10.3123 4.58115 10.3123C4.06992 10.3123 3.57289 10.4806 3.16675 10.7912C2.7606 11.1018 2.46791 11.5376 2.33383 12.0311H0.624688C0.45901 12.0311 0.300118 12.097 0.182967 12.2142C0.0658151 12.3314 0 12.4904 0 12.6561C0 12.8219 0.0658151 12.9808 0.182967 13.098C0.300118 13.2153 0.45901 13.2811 0.624688 13.2811H2.33383C2.46791 13.7747 2.7606 14.2104 3.16675 14.521C3.57289 14.8317 4.06992 15 4.58115 15C5.09238 15 5.58941 14.8317 5.99555 14.521C6.40169 14.2104 6.69438 13.7747 6.82846 13.2811H14.3678C14.5335 13.2811 14.6924 13.2153 14.8095 13.098C14.9267 12.9808 14.9925 12.8219 14.9925 12.6561C14.9925 12.4904 14.9267 12.3314 14.8095 12.2142C14.6924 12.097 14.5335 12.0311 14.3678 12.0311ZM4.58083 13.7498C4.36462 13.7498 4.15326 13.6857 3.97348 13.5655C3.79371 13.4453 3.65359 13.2745 3.57085 13.0747C3.4881 12.8748 3.46645 12.6549 3.50864 12.4427C3.55082 12.2306 3.65494 12.0357 3.80782 11.8827C3.96071 11.7298 4.1555 11.6256 4.36756 11.5834C4.57962 11.5412 4.79943 11.5629 4.99919 11.6456C5.19894 11.7284 5.36968 11.8686 5.4898 12.0485C5.60992 12.2283 5.67404 12.4398 5.67404 12.6561C5.67354 12.946 5.55821 13.2239 5.3533 13.429C5.14839 13.634 4.87062 13.7493 4.58083 13.7498Z" fill="#BDBEBD"/>
</svg>
