<svg width="25" height="25" viewBox="0 0 25 25" fill="none" xmlns="http://www.w3.org/2000/svg">
<path fill-rule="evenodd" clip-rule="evenodd" d="M5.3875 12.5002C5.3875 11.6883 5.52227 10.9098 5.76309 10.1797L1.5502 6.9628C0.729102 8.62975 0.266602 10.5082 0.266602 12.5002C0.266602 14.4905 0.728711 16.3676 1.54844 18.0336L5.75898 14.8105C5.52051 14.0837 5.3875 13.3081 5.3875 12.5002Z" fill="#FBBC05"/>
<path fill-rule="evenodd" clip-rule="evenodd" d="M12.785 5.11354C14.5488 5.11354 16.142 5.73853 17.3937 6.76116L21.0352 3.12492C18.8162 1.19313 15.9713 0 12.785 0C7.83809 0 3.58652 2.82883 1.55078 6.96232L5.76348 10.1792C6.73418 7.23282 9.50117 5.11354 12.785 5.11354Z" fill="#EA4335"/>
<path fill-rule="evenodd" clip-rule="evenodd" d="M12.785 19.8865C9.50137 19.8865 6.73437 17.7672 5.76367 14.8208L1.55078 18.0371C3.58652 22.1712 7.83809 25 12.785 25C15.8381 25 18.7531 23.9159 20.9408 21.8847L16.942 18.7933C15.8137 19.504 14.3928 19.8865 12.785 19.8865Z" fill="#34A853"/>
<path fill-rule="evenodd" clip-rule="evenodd" d="M24.7338 12.5003C24.7338 11.7617 24.6199 10.9662 24.4492 10.2277H12.7852V15.0571H19.4992C19.1635 16.7037 18.2498 17.9695 16.9422 18.7933L20.941 21.8847C23.2391 19.7519 24.7338 16.5746 24.7338 12.5003Z" fill="#4285F4"/>
</svg>
