<svg width="16" height="14" viewBox="0 0 16 14" fill="none" xmlns="http://www.w3.org/2000/svg">
<rect width="16" height="14" fill="#F5F5F5"/>
<g id="Rectangle 77" filter="url(#filter0_d_0_1)">
<rect x="-387" y="-279" width="489" height="378" rx="9" fill="white"/>
</g>
<path id="Vector" d="M15.4208 7.26346L11.8139 3.53502C11.5606 3.26822 11.1339 3.26155 10.8739 3.52168C10.6072 3.77513 10.6006 4.202 10.8606 4.46212L14.2874 7.99714H3.33351C2.23345 7.99714 1.3334 7.09671 1.3334 5.99619V0.666984C1.3334 0.300143 1.03339 0 0.666701 0C0.300016 0 0 0.300143 0 0.666984V6.00286C0 7.84373 1.49341 9.33778 3.33351 9.33778H14.2807L10.8539 12.8728C10.6006 13.1396 10.6072 13.5598 10.8672 13.8132C10.9939 13.94 11.1606 14 11.3339 14C11.5073 14 11.6806 13.9333 11.8139 13.7999L15.4141 10.0781C16.1942 9.29776 16.1942 8.03049 15.4208 7.25679V7.26346Z" fill="#FDC100"/>
<defs>
<filter id="filter0_d_0_1" x="-391" y="-279" width="497" height="386" filterUnits="userSpaceOnUse" color-interpolation-filters="sRGB">
<feFlood flood-opacity="0" result="BackgroundImageFix"/>
<feColorMatrix in="SourceAlpha" type="matrix" values="0 0 0 0 0 0 0 0 0 0 0 0 0 0 0 0 0 0 127 0" result="hardAlpha"/>
<feOffset dy="4"/>
<feGaussianBlur stdDeviation="2"/>
<feComposite in2="hardAlpha" operator="out"/>
<feColorMatrix type="matrix" values="0 0 0 0 0 0 0 0 0 0 0 0 0 0 0 0 0 0 0.25 0"/>
<feBlend mode="normal" in2="BackgroundImageFix" result="effect1_dropShadow_0_1"/>
<feBlend mode="normal" in="SourceGraphic" in2="effect1_dropShadow_0_1" result="shape"/>
</filter>
</defs>
</svg>
