<svg width="25" height="25" viewBox="0 0 25 25" fill="none" xmlns="http://www.w3.org/2000/svg">
<path d="M25 12.5C25 14.9723 24.2669 17.389 22.8934 19.4446C21.5199 21.5002 19.5676 23.1024 17.2835 24.0485C14.9995 24.9946 12.4861 25.2421 10.0614 24.7598C7.63661 24.2775 5.40933 23.087 3.66117 21.3388C1.91301 19.5907 0.722505 17.3634 0.24019 14.9386C-0.242126 12.5139 0.00541607 10.0005 0.951511 7.71646C1.89761 5.43238 3.49976 3.48015 5.55538 2.10663C7.61099 0.733112 10.0277 0 12.5 0C15.8141 0.00358446 18.9914 1.3217 21.3349 3.66512C23.6783 6.00855 24.9964 9.18589 25 12.5ZM13.5417 14.851C13.5286 14.4886 13.6113 14.129 13.7813 13.8086C13.9514 13.4883 14.2029 13.2183 14.5104 13.026C15.1541 12.6715 15.6926 12.1529 16.0712 11.5231C16.4498 10.8932 16.6551 10.1744 16.6662 9.43963C16.6773 8.70482 16.4939 7.98014 16.1346 7.3391C15.7752 6.69806 15.2528 6.16345 14.6201 5.78952C13.9875 5.41559 13.2672 5.21563 12.5323 5.20993C11.7975 5.20423 11.0741 5.39299 10.4358 5.75707C9.79741 6.12114 9.2667 6.64758 8.89746 7.28297C8.52822 7.91836 8.3336 8.64011 8.33334 9.375H10.4167C10.4164 9.06851 10.4838 8.76575 10.614 8.48829C10.7441 8.21083 10.9339 7.96551 11.1698 7.76982C11.4057 7.57413 11.6818 7.4329 11.9786 7.35619C12.2753 7.27948 12.5853 7.26919 12.8865 7.32604C13.298 7.40592 13.6763 7.60665 13.9732 7.90259C14.27 8.19853 14.472 8.57625 14.5531 8.9875C14.6351 9.41917 14.5785 9.8657 14.3914 10.2633C14.2043 10.6608 13.8963 10.9891 13.5115 11.201C12.8741 11.5703 12.3475 12.1037 11.9864 12.7456C11.6253 13.3876 11.4429 14.1146 11.4583 14.851V15.625H13.5417V14.851ZM13.5417 17.7083H11.4583V19.7917H13.5417V17.7083Z" fill="#707070"/>
</svg>
