<svg width="16" height="20" viewBox="0 0 16 20" fill="none" xmlns="http://www.w3.org/2000/svg">
<path d="M7.9989 4.77734C7.36947 4.77734 6.75416 4.96399 6.2308 5.31369C5.70745 5.66339 5.29954 6.16043 5.05866 6.74195C4.81779 7.32348 4.75476 7.96337 4.87756 8.58071C5.00036 9.19806 5.30346 9.76512 5.74854 10.2102C6.19362 10.6553 6.76069 10.9584 7.37803 11.0812C7.99537 11.204 8.63527 11.141 9.21679 10.9001C9.79832 10.6592 10.2954 10.2513 10.6451 9.72794C10.9948 9.20458 11.1814 8.58928 11.1814 7.95984C11.1814 7.11579 10.8461 6.30631 10.2493 5.70948C9.65244 5.11264 8.84295 4.77734 7.9989 4.77734ZM7.9989 9.55109C7.68419 9.55109 7.37653 9.45776 7.11485 9.28291C6.85317 9.10807 6.64922 8.85955 6.52878 8.56878C6.40834 8.27802 6.37683 7.95807 6.43823 7.6494C6.49963 7.34073 6.65118 7.0572 6.87372 6.83466C7.09626 6.61212 7.3798 6.46057 7.68847 6.39917C7.99714 6.33777 8.31709 6.36928 8.60785 6.48972C8.89861 6.61016 9.14713 6.81411 9.32198 7.07579C9.49683 7.33747 9.59015 7.64512 9.59015 7.95984C9.59015 8.38187 9.4225 8.7866 9.12409 9.08502C8.82567 9.38344 8.42093 9.55109 7.9989 9.55109Z" fill="#BDBEBD"/>
<path d="M8 19.0966C7.33004 19.1 6.66901 18.9429 6.07225 18.6383C5.4755 18.3338 4.96039 17.8907 4.57006 17.3462C1.53794 13.1636 0 10.0193 0 8C0 5.87827 0.842855 3.84344 2.34315 2.34315C3.84344 0.842855 5.87827 0 8 0C10.1217 0 12.1566 0.842855 13.6569 2.34315C15.1571 3.84344 16 5.87827 16 8C16 10.0193 14.4621 13.1636 11.4299 17.3462C11.0396 17.8907 10.5245 18.3338 9.92774 18.6383C9.33099 18.9429 8.66996 19.1 8 19.0966ZM8 1.73685C6.33907 1.73874 4.74671 2.39938 3.57225 3.57384C2.39779 4.7483 1.73715 6.34066 1.73526 8.00159C1.73526 9.6008 3.24137 12.5581 5.97514 16.3286C6.20722 16.6483 6.51168 16.9084 6.86362 17.0878C7.21556 17.2672 7.60497 17.3608 8 17.3608C8.39503 17.3608 8.78444 17.2672 9.13638 17.0878C9.48832 16.9084 9.79278 16.6483 10.0249 16.3286C12.7586 12.5581 14.2647 9.6008 14.2647 8.00159C14.2628 6.34066 13.6022 4.7483 12.4277 3.57384C11.2533 2.39938 9.66093 1.73874 8 1.73685Z" fill="#BDBEBD"/>
</svg>
