<svg width="14" height="16" viewBox="0 0 14 16" fill="none" xmlns="http://www.w3.org/2000/svg">
<path d="M6.70257 4.00099C6.1752 4.00099 5.65967 4.15738 5.22118 4.45037C4.78269 4.74336 4.44092 5.1598 4.2391 5.64703C4.03729 6.13425 3.98448 6.67039 4.08737 7.18762C4.19025 7.70486 4.44421 8.17998 4.81712 8.55288C5.19002 8.92579 5.66514 9.17975 6.18237 9.28263C6.69961 9.38552 7.23574 9.33271 7.72297 9.13089C8.2102 8.92908 8.62664 8.58731 8.91963 8.14882C9.21262 7.71033 9.36901 7.1948 9.36901 6.66743C9.36901 5.96025 9.08808 5.28203 8.58803 4.78197C8.08797 4.28192 7.40975 4.00099 6.70257 4.00099ZM6.70257 8.00065C6.43889 8.00065 6.18112 7.92245 5.96187 7.77596C5.74263 7.62946 5.57175 7.42124 5.47084 7.17763C5.36993 6.93401 5.34353 6.66595 5.39497 6.40733C5.44641 6.14871 5.57339 5.91115 5.75984 5.7247C5.9463 5.53825 6.18385 5.41127 6.44247 5.35983C6.70109 5.30838 6.96916 5.33479 7.21277 5.4357C7.45638 5.5366 7.66461 5.70749 7.8111 5.92673C7.9576 6.14598 8.03579 6.40374 8.03579 6.66743C8.03579 7.02102 7.89533 7.36013 7.6453 7.61016C7.39527 7.86018 7.05616 8.00065 6.70257 8.00065Z" fill="#FDC100"/>
<path d="M6.70276 16C6.14143 16.0028 5.58759 15.8712 5.0876 15.616C4.58762 15.3609 4.15604 14.9896 3.829 14.5334C1.28856 11.029 0 8.39461 0 6.70276C0 4.92507 0.706181 3.2202 1.96319 1.96319C3.2202 0.706181 4.92507 0 6.70276 0C8.48044 0 10.1853 0.706181 11.4423 1.96319C12.6993 3.2202 13.4055 4.92507 13.4055 6.70276C13.4055 8.39461 12.117 11.029 9.57651 14.5334C9.24947 14.9896 8.81789 15.3609 8.31791 15.616C7.81792 15.8712 7.26408 16.0028 6.70276 16ZM6.70276 1.45521C5.31115 1.4568 3.977 2.01031 2.99299 2.99432C2.00898 3.97833 1.45546 5.31249 1.45387 6.70409C1.45387 8.04397 2.71577 10.5218 5.00623 13.6808C5.20068 13.9486 5.45578 14.1666 5.75065 14.3169C6.04552 14.4673 6.37179 14.5456 6.70276 14.5456C7.03373 14.5456 7.35999 14.4673 7.65486 14.3169C7.94973 14.1666 8.20483 13.9486 8.39928 13.6808C10.6897 10.5218 11.9516 8.04397 11.9516 6.70409C11.95 5.31249 11.3965 3.97833 10.4125 2.99432C9.42851 2.01031 8.09436 1.4568 6.70276 1.45521Z" fill="#FDC100"/>
</svg>
