<svg width="24" height="29" viewBox="0 0 24 29" fill="none" xmlns="http://www.w3.org/2000/svg">
<path d="M20.4 10.1088V8.4C20.4 6.17218 19.515 4.03561 17.9397 2.4603C16.3644 0.884998 14.2278 0 12 0C9.77218 0 7.63561 0.884998 6.0603 2.4603C4.485 4.03561 3.6 6.17218 3.6 8.4V10.1088C2.53123 10.5752 1.62155 11.343 0.982199 12.3183C0.342846 13.2935 0.00153405 14.4339 0 15.6V22.8C0.00190543 24.3907 0.634658 25.9157 1.75946 27.0405C2.88427 28.1653 4.40929 28.7981 6 28.8H18C19.5907 28.7981 21.1157 28.1653 22.2405 27.0405C23.3653 25.9157 23.9981 24.3907 24 22.8V15.6C23.9985 14.4339 23.6572 13.2935 23.0178 12.3183C22.3785 11.343 21.4688 10.5752 20.4 10.1088ZM6 8.4C6 6.8087 6.63214 5.28258 7.75736 4.15736C8.88258 3.03214 10.4087 2.4 12 2.4C13.5913 2.4 15.1174 3.03214 16.2426 4.15736C17.3679 5.28258 18 6.8087 18 8.4V9.6H6V8.4ZM21.6 22.8C21.6 23.7548 21.2207 24.6705 20.5456 25.3456C19.8705 26.0207 18.9548 26.4 18 26.4H6C5.04522 26.4 4.12955 26.0207 3.45442 25.3456C2.77928 24.6705 2.4 23.7548 2.4 22.8V15.6C2.4 14.6452 2.77928 13.7295 3.45442 13.0544C4.12955 12.3793 5.04522 12 6 12H18C18.9548 12 19.8705 12.3793 20.5456 13.0544C21.2207 13.7295 21.6 14.6452 21.6 15.6V22.8Z" fill="#BDBEBD"/>
<path d="M11.9998 16.7988C11.6815 16.7988 11.3763 16.9253 11.1513 17.1503C10.9262 17.3753 10.7998 17.6806 10.7998 17.9988V20.3988C10.7998 20.7171 10.9262 21.0223 11.1513 21.2474C11.3763 21.4724 11.6815 21.5988 11.9998 21.5988C12.3181 21.5988 12.6233 21.4724 12.8483 21.2474C13.0734 21.0223 13.1998 20.7171 13.1998 20.3988V17.9988C13.1998 17.6806 13.0734 17.3753 12.8483 17.1503C12.6233 16.9253 12.3181 16.7988 11.9998 16.7988Z" fill="#BDBEBD"/>
</svg>
