<svg width="267" height="45" viewBox="0 0 267 45" fill="none" xmlns="http://www.w3.org/2000/svg">
<g filter="url(#filter0_d_859_4)">
<path d="M190.292 30.8318C190.292 27.747 192.803 25.2368 195.888 25.2368C198.972 25.2368 201.483 27.7479 201.483 30.8318C201.483 33.9189 198.972 36.4289 195.888 36.4289C192.803 36.4289 190.292 33.9178 190.292 30.8318ZM192.68 30.8316C192.68 32.6022 194.117 34.0416 195.888 34.0416C197.659 34.0416 199.096 32.6007 199.096 30.8316C199.096 29.0632 197.658 27.6239 195.888 27.6239C194.118 27.6239 192.68 29.063 192.68 30.8316Z" fill="black" stroke="black"/>
<path d="M241.478 31.3816C241.478 28.6011 243.741 26.3373 246.522 26.3373C249.304 26.3373 251.566 28.601 251.566 31.3816C251.566 34.1624 249.302 36.4282 246.522 36.4282C243.742 36.4282 241.478 34.1622 241.478 31.3816ZM243.864 31.3816C243.864 32.8484 245.054 34.042 246.522 34.042C247.988 34.042 249.18 32.8487 249.18 31.3816C249.18 29.9164 247.987 28.7235 246.522 28.7235C245.054 28.7235 243.864 29.9168 243.864 31.3816Z" fill="black" stroke="black"/>
<path d="M204.1 35.5467V33.1595L237.873 33.1595V35.5467L204.1 35.5467Z" fill="black" stroke="black"/>
<path d="M259.443 32.9586L257.458 31.6337L259.152 29.0896L259.219 28.9886L259.232 28.868L259.48 26.6505L259.491 26.5472L259.461 26.4479L258.809 24.3307L258.772 24.2116L258.684 24.1237L258.084 23.5263L258.024 23.4663L257.947 23.4296L255.95 22.4731L255.869 22.4346L255.781 22.4262L234.851 20.4438L224.467 12.9813L224.336 12.8873H224.175L216.609 12.8873H216.567L216.526 12.8944L205.893 14.7025L205.827 14.7136L205.767 14.7415L191.909 21.1458L188.183 19.9534L188.109 19.9296H188.031H184.489H183.554L184.073 20.707L186.624 24.5338L183.105 26.9165L182.885 27.0652V27.3305V30.1397V30.3468L183.031 30.4932L184.053 31.5145L182.366 33.2007L180.5 31.336V25.7978L182.913 24.1635L183.324 23.8852L183.049 23.4722L180.5 19.6488V17.5435H188.481L191.567 18.5298L191.752 18.589L191.929 18.5074L205.114 12.4143L216.365 10.5H225.105L235.609 18.0504L235.719 18.1294L235.854 18.1421L256.516 20.1003L259.422 21.4901L260.878 22.9438L261.917 26.3161L261.527 29.8303L259.443 32.9586Z" fill="black" stroke="black"/>
</g>
<path d="M12.88 37L0 8.4H6.96L17.56 32H18.08L28.68 8.4H35.64L22.76 37H12.88ZM38.425 37V8.4H69.785V13.6H44.825V19.92H67.465V25.12H44.825V31.8H69.785V37H38.425Z" fill="#FDC100"/>
<path d="M74.1672 37V8.4H80.5672V31.8H101.487V37H74.1672ZM119.935 37.2C114.842 37.2 110.895 35.9867 108.095 33.56C105.295 31.1067 103.895 27.48 103.895 22.68C103.895 17.9067 105.295 14.3067 108.095 11.88C110.895 9.42667 114.935 8.2 120.215 8.2H127.415C132.695 8.2 136.735 9.42667 139.535 11.88C142.335 14.3067 143.735 17.9067 143.735 22.68C143.735 27.48 142.335 31.1067 139.535 33.56C136.735 35.9867 132.762 37.2 127.615 37.2H119.935ZM120.655 13.4C117.695 13.4 115.389 13.9333 113.735 15C112.082 16.0667 111.042 17.76 110.615 20.08H137.015C136.589 17.76 135.549 16.0667 133.895 15C132.242 13.9333 129.935 13.4 126.975 13.4H120.655ZM120.775 32H126.975C129.962 32 132.269 31.4667 133.895 30.4C135.549 29.3333 136.589 27.6267 137.015 25.28H110.615C111.042 27.6267 112.082 29.3333 113.735 30.4C115.389 31.4667 117.735 32 120.775 32ZM162.442 37.2C157.162 37.2 153.122 35.9867 150.322 33.56C147.522 31.1067 146.122 27.48 146.122 22.68C146.122 17.9067 147.522 14.2933 150.322 11.84C153.122 9.38667 157.162 8.17333 162.442 8.2L176.842 8.28V13.4H162.882C159.415 13.4 156.842 14.1333 155.162 15.6C153.482 17.0667 152.642 19.4267 152.642 22.68C152.642 25.9333 153.482 28.3067 155.162 29.8C156.842 31.2667 159.415 32 162.882 32H177.242V37.2H162.442Z" fill="black"/>
<defs>
<filter id="filter0_d_859_4" x="176" y="10" width="90.4248" height="34.9289" filterUnits="userSpaceOnUse" color-interpolation-filters="sRGB">
<feFlood flood-opacity="0" result="BackgroundImageFix"/>
<feColorMatrix in="SourceAlpha" type="matrix" values="0 0 0 0 0 0 0 0 0 0 0 0 0 0 0 0 0 0 127 0" result="hardAlpha"/>
<feOffset dy="4"/>
<feGaussianBlur stdDeviation="2"/>
<feComposite in2="hardAlpha" operator="out"/>
<feColorMatrix type="matrix" values="0 0 0 0 0 0 0 0 0 0 0 0 0 0 0 0 0 0 0.25 0"/>
<feBlend mode="normal" in2="BackgroundImageFix" result="effect1_dropShadow_859_4"/>
<feBlend mode="normal" in="SourceGraphic" in2="effect1_dropShadow_859_4" result="shape"/>
</filter>
</defs>
</svg>
