<svg width="23" height="23" viewBox="0 0 23 23" fill="none" xmlns="http://www.w3.org/2000/svg">
<path d="M21.815 9.52786L17.0713 4.91797L15.7172 6.23854L19.838 10.2431H6.3418V12.1057H19.838L15.7172 16.1102L17.0723 17.4271L21.816 12.8172C22.0385 12.601 22.2151 12.3443 22.3355 12.0618C22.456 11.7793 22.518 11.4765 22.518 11.1707C22.518 10.8649 22.456 10.5621 22.3355 10.2795C22.2151 9.99702 22.0385 9.74033 21.816 9.52413L21.815 9.52786Z" fill="#707070"/>
<path d="M10.0395 19.5571C10.0395 19.8041 9.93853 20.041 9.75881 20.2156C9.57909 20.3903 9.33533 20.4884 9.08117 20.4884H2.875C2.62083 20.4884 2.37708 20.3903 2.19736 20.2156C2.01763 20.041 1.91667 19.8041 1.91667 19.5571V2.79387C1.91667 2.54688 2.01763 2.31 2.19736 2.13535C2.37708 1.9607 2.62083 1.86258 2.875 1.86258H9.08117C9.33533 1.86258 9.57909 1.9607 9.75881 2.13535C9.93853 2.31 10.0395 2.54688 10.0395 2.79387V7.76044H11.9562V2.79387C11.9562 2.05289 11.6533 1.34226 11.1141 0.818306C10.5749 0.294353 9.84366 0 9.08117 0L2.875 0C2.1125 0 1.38124 0.294353 0.842068 0.818306C0.302901 1.34226 0 2.05289 0 2.79387L0 19.5571C0 20.2981 0.302901 21.0087 0.842068 21.5327C1.38124 22.0566 2.1125 22.351 2.875 22.351H9.08117C9.84366 22.351 10.5749 22.0566 11.1141 21.5327C11.6533 21.0087 11.9562 20.2981 11.9562 19.5571V14.5905H10.0395V19.5571Z" fill="#707070"/>
</svg>
