<svg width="29" height="22" viewBox="0 0 29 22" fill="none" xmlns="http://www.w3.org/2000/svg">
<path d="M25.375 0H3.625C2.66359 0 1.74156 0.381919 1.06174 1.06174C0.381919 1.74156 0 2.66359 0 3.625L0 6.04167H29V3.625C29 2.66359 28.6181 1.74156 27.9383 1.06174C27.2584 0.381919 26.3364 0 25.375 0Z" fill="#707070"/>
<path d="M0 21.7487H29V8.45703H0V21.7487ZM8.45833 15.1029C8.45833 15.4613 8.35203 15.8118 8.15287 16.1098C7.95371 16.4079 7.67064 16.6402 7.33945 16.7774C7.00826 16.9146 6.64382 16.9505 6.29223 16.8805C5.94064 16.8106 5.61768 16.638 5.3642 16.3845C5.11072 16.131 4.9381 15.8081 4.86816 15.4565C4.79822 15.1049 4.83412 14.7404 4.9713 14.4093C5.10849 14.0781 5.3408 13.795 5.63886 13.5958C5.93693 13.3967 6.28735 13.2904 6.64583 13.2904C7.12654 13.2904 7.58755 13.4813 7.92746 13.8212C8.26737 14.1611 8.45833 14.6222 8.45833 15.1029Z" fill="#707070"/>
</svg>
