<svg width="16" height="33" viewBox="0 0 16 33" fill="none" xmlns="http://www.w3.org/2000/svg">
<path d="M13.0909 32.0494C13.0909 32.0494 16 32.0494 16 29.1359V2.91346C16 0 13.0909 0 13.0909 0H2.90909C2.90909 0 0 0 0 2.91346V29.1359C4.04664e-05 32.0494 2.90909 32.0494 2.90909 32.0494H13.0909ZM8 30.8363C7.19711 30.8363 6.54548 30.1846 6.54548 29.3817C6.54548 28.5788 7.19711 27.9272 8 27.9272C8.80293 27.9272 9.45452 28.5788 9.45452 29.3817C9.45452 30.1846 8.80293 30.8363 8 30.8363ZM5.81817 1.77599C5.81817 1.59563 5.904 1.45452 6.0116 1.45452H9.98832C10.0945 1.45452 10.1818 1.59854 10.1818 1.77599V1.86182C10.1818 2.04218 10.0945 2.18328 9.98832 2.18328H6.0116C5.90542 2.18328 5.81817 2.03926 5.81817 1.86182V1.77599ZM1.45456 3.63635H14.5454V26.909H1.45456V3.63635Z" fill="#BDBEBD"/>
</svg>
