<svg width="14" height="14" viewBox="0 0 14 14" fill="none" xmlns="http://www.w3.org/2000/svg">
<path d="M13.4158 6.41629C13.2609 6.41629 13.1123 6.35485 13.0027 6.24548C12.8932 6.1361 12.8316 5.98776 12.8316 5.83309C12.8304 4.59606 12.3376 3.41005 11.4614 2.53534C10.5853 1.66063 9.39728 1.16867 8.15818 1.16744C8.00325 1.16744 7.85466 1.10599 7.7451 0.996621C7.63555 0.887249 7.574 0.738908 7.574 0.584232C7.574 0.429557 7.63555 0.281216 7.7451 0.171843C7.85466 0.062471 8.00325 0.00102625 8.15818 0.00102625C9.70701 0.00272431 11.1919 0.617717 12.2871 1.71107C13.3823 2.80443 13.9983 4.28685 14 5.83309C14 5.98776 13.9385 6.1361 13.8289 6.24548C13.7193 6.35485 13.5708 6.41629 13.4158 6.41629ZM11.6633 5.83309C11.6633 4.90503 11.294 4.01499 10.6367 3.35875C9.97932 2.70252 9.08779 2.33385 8.15818 2.33385C8.00325 2.33385 7.85466 2.3953 7.7451 2.50467C7.63555 2.61404 7.574 2.76238 7.574 2.91706C7.574 3.07173 7.63555 3.22007 7.7451 3.32945C7.85466 3.43882 8.00325 3.50026 8.15818 3.50026C8.77792 3.50026 9.37227 3.74604 9.8105 4.18353C10.2487 4.62102 10.4949 5.21438 10.4949 5.83309C10.4949 5.98776 10.5565 6.1361 10.666 6.24548C10.7756 6.35485 10.9242 6.41629 11.0791 6.41629C11.234 6.41629 11.3826 6.35485 11.4922 6.24548C11.6017 6.1361 11.6633 5.98776 11.6633 5.83309ZM12.9385 12.9272L13.4701 12.3154C13.8085 11.9765 13.9985 11.5176 13.9985 11.0391C13.9985 10.5606 13.8085 10.1016 13.4701 9.76273C13.452 9.74465 12.0465 8.66514 12.0465 8.66514C11.7092 8.34457 11.2611 8.16606 10.7954 8.16672C10.3296 8.16737 9.88205 8.34712 9.54561 8.66864L8.43216 9.60527C7.52328 9.22974 6.69766 8.67865 6.00272 7.98367C5.30777 7.28869 4.7572 6.4635 4.38261 5.55548L5.3173 4.44739C5.63961 4.11156 5.81987 3.66466 5.82064 3.19956C5.8214 2.73447 5.64259 2.28698 5.32139 1.9501C5.32139 1.9501 4.2389 0.548657 4.2208 0.530577C3.88749 0.19567 3.43559 0.00512153 2.96272 0.00010174C2.48985 -0.00491805 2.03399 0.175994 1.69362 0.50375L1.02182 1.08696C-2.94712 5.68379 5.59946 14.1502 10.3559 13.998C10.8362 14.0008 11.3122 13.9074 11.7558 13.7235C12.1993 13.5396 12.6015 13.2689 12.9385 12.9272Z" fill="#FDC100"/>
</svg>
