<svg width="31" height="31" viewBox="0 0 31 31" fill="none" xmlns="http://www.w3.org/2000/svg">
<rect x="1" y="1" width="29" height="29" rx="7" fill="white" stroke="#BDBEBD" stroke-width="2"/>
<path d="M14.9287 6.00086C10.932 6.1581 7.48294 8.91844 6.36841 12.8518C5.25387 16.7852 6.72445 21.0073 10.0182 23.3306C10.5125 23.6793 11.0986 23.866 11.6988 23.866C14.0896 23.866 16.4805 23.866 18.8713 23.866C19.4715 23.866 20.0576 23.6793 20.5519 23.3306C23.8457 21.0073 25.3163 16.7852 24.2017 12.8518C23.0872 8.91849 19.6381 6.1581 15.6415 6.00086C15.3772 6.0006 15.187 5.99906 14.9287 6.00086ZM15.2575 8.2531H15.2578H15.2581C15.2766 8.25472 15.2949 8.25391 15.3121 8.2531H15.3124H15.3127C18.4926 8.26581 21.274 10.4485 22.1126 13.5895C22.0859 13.597 22.0859 13.597 22.1126 13.5895C22.1665 13.7912 22.0178 13.9906 21.8136 13.9906H15.2851H8.75652C8.55237 13.9906 8.40369 13.7912 8.45754 13.5895C8.48423 13.597 8.48427 13.597 8.45754 13.5895C9.2962 10.4486 12.0776 8.26581 15.2575 8.2531ZM8.57627 16.1461C8.60193 16.1457 8.62821 16.1485 8.6547 16.155C11.1676 16.7711 13.1893 18.6766 13.9968 21.1901C14.0627 21.395 13.913 21.6067 13.7024 21.6067H11.6988C11.5456 21.6067 11.396 21.5591 11.2698 21.4701C9.63708 20.3184 8.55091 18.5183 8.27554 16.5077C8.24905 16.3143 8.39686 16.1495 8.57627 16.1461ZM21.9939 16.1461C22.1734 16.1495 22.3211 16.3143 22.2946 16.5078C22.0193 18.5183 20.9331 20.3184 19.3003 21.4701C19.1741 21.5591 19.0245 21.6068 18.8713 21.6068H16.8678C16.6571 21.6068 16.5074 21.3951 16.5733 21.1901C17.3808 18.6767 19.4025 16.7711 21.9154 16.155C21.942 16.1485 21.9682 16.1457 21.9939 16.1461Z" fill="#BDBEBD"/>
</svg>
