<svg width="24" height="22" viewBox="0 0 24 22" fill="none" xmlns="http://www.w3.org/2000/svg">
<path d="M23.901 15.3166C23.6688 14.7712 23.243 14.4891 22.6431 14.4891C22.4302 14.4891 22.1786 14.5267 21.9076 14.6019L17.7854 15.9936C17.7854 15.9748 17.7854 15.9748 17.7854 15.956C17.7854 15.9372 17.7854 15.9184 17.7854 15.8996C17.7854 15.862 17.7854 15.8432 17.7854 15.8056C17.7854 15.7867 17.7854 15.7679 17.7854 15.7679V15.7491V15.7303C17.7854 15.6927 17.7661 15.6363 17.7661 15.5987C17.7661 15.5987 17.7661 15.5987 17.7661 15.5799C17.5919 14.8464 16.8952 14.301 16.0824 14.301H12.8117C11.3022 12.4391 7.79928 12.4203 7.64445 12.4203H5.12856V11.5176H0V19.8114H5.12856V19.0215L11.4764 20.9775C11.5151 20.9963 12.4634 21.2596 13.5471 21.2596C14.2051 21.2596 14.7857 21.1655 15.2889 20.9587C16.5662 20.4509 21.6948 17.7803 23.243 16.9716C23.6688 16.7271 24.23 16.0877 23.901 15.3166ZM4.35443 19.0403H0.774122V12.251H4.35443V12.3827V18.7394V19.0403ZM22.8559 16.2945C21.3271 17.1032 16.2178 19.7362 14.9793 20.244C14.5922 20.3944 14.1084 20.4885 13.5471 20.4885C12.5601 20.4885 11.6892 20.244 11.6892 20.244L5.1092 18.2316V13.135H7.6251C7.66381 13.135 11.0699 13.1538 12.2698 14.8652L12.3859 15.0345H16.0437C16.5275 15.0345 16.9339 15.373 16.992 15.8244V15.8432C16.992 15.8808 16.992 15.8996 16.992 15.9372C16.992 15.9748 16.992 16.0124 16.9726 16.05C16.9726 16.0689 16.9726 16.0877 16.9726 16.1065C16.9726 16.1441 16.9533 16.1817 16.9339 16.2193C16.9339 16.2381 16.9339 16.2569 16.9146 16.2569C16.8952 16.3133 16.8759 16.351 16.8371 16.3886C16.6823 16.6143 16.4114 16.7647 16.1017 16.7647H11.0699V17.517H16.1017C16.6243 17.517 17.1081 17.2725 17.4177 16.8964L22.1205 15.3166C22.3141 15.2602 22.4882 15.2413 22.6431 15.2413C22.9334 15.2413 23.0688 15.3354 23.1849 15.5987C23.3398 15.956 22.9721 16.2381 22.8559 16.2945Z" fill="#707070"/>
<path d="M18.7916 7.81077C18.9465 7.86719 19.1206 7.9048 19.2948 7.9048C19.9141 7.9048 20.4754 7.52866 20.6882 6.96446C20.9592 6.21218 20.5721 5.40348 19.798 5.12138C19.6432 5.06496 19.469 5.02734 19.2948 5.02734C18.6755 5.02734 18.1143 5.40348 17.9014 5.96769C17.7659 6.32502 17.7853 6.71997 17.9595 7.05849C18.1143 7.41582 18.4046 7.67912 18.7916 7.81077ZM18.6368 6.23099C18.7336 5.96769 19.0045 5.77962 19.2948 5.77962C19.3722 5.77962 19.4496 5.79843 19.5271 5.81723C19.8948 5.94888 20.0883 6.34383 19.9528 6.68235C19.8561 6.94565 19.5851 7.13372 19.2948 7.13372C19.2174 7.13372 19.14 7.11491 19.0626 7.09611C18.8884 7.03968 18.7529 6.90804 18.6755 6.73877C18.5981 6.56951 18.5594 6.40025 18.6368 6.23099Z" fill="#707070"/>
<path d="M7.25719 4.18144L7.97325 3.86172L8.30226 4.55758L9.96662 5.14059L10.6827 4.82087L11.0117 5.51673L12.5406 6.06213C12.6567 7.82998 13.8372 9.44738 15.6564 10.0868C16.1789 10.2749 16.7208 10.3689 17.2821 10.3689C19.2754 10.3689 21.0559 9.14647 21.7333 7.341C22.6235 4.95252 21.3656 2.30074 18.9077 1.43563C18.3852 1.24756 17.8433 1.15352 17.2821 1.15352C15.9661 1.15352 14.7468 1.69892 13.8566 2.58285L6.88948 0.119141L4.64453 0.852611L5.53477 3.57962L7.25719 4.18144ZM17.3014 1.9058C17.7659 1.9058 18.211 1.98103 18.6561 2.13148C20.7076 2.86495 21.772 5.08417 21.0366 7.0777C20.4753 8.60106 18.9658 9.61664 17.3014 9.61664C16.8369 9.61664 16.3918 9.54141 15.9467 9.39095C13.8953 8.65749 12.8309 6.43827 13.5663 4.44473C14.1469 2.94018 15.6564 1.9058 17.3014 1.9058ZM13.3728 3.20348C13.1599 3.50439 12.9857 3.84291 12.8502 4.20024C12.7148 4.55758 12.6373 4.91491 12.5986 5.29105L11.6116 4.93371L11.0891 3.82411L9.94727 4.33189L8.88285 3.95575L8.36032 2.84614L7.21849 3.35393L6.19277 3.01541L5.76701 1.71773L11.8439 3.86172L12.1148 3.14706L6.32825 1.11591L6.90884 0.927838L13.3728 3.20348Z" fill="#707070"/>
</svg>
