<svg width="28" height="28" viewBox="0 0 28 28" fill="none" xmlns="http://www.w3.org/2000/svg">
<path d="M24.5945 14C24.5942 13.3563 24.5351 12.714 24.4179 12.0808L28 10.0333L24.4685 3.96667L20.8852 6.01883C19.8959 5.17991 18.759 4.52893 17.5315 4.0985V0H10.4685V4.0985C9.24103 4.52893 8.10412 5.17991 7.11477 6.01883L3.53149 3.96667L0 10.0333L3.58211 12.0808C3.3468 13.3497 3.3468 14.6503 3.58211 15.9192L0 17.9667L3.53149 24.0333L7.11477 21.9823C8.10422 22.8208 9.24112 23.4714 10.4685 23.9015V28H17.5315V23.9015C18.759 23.4711 19.8959 22.8201 20.8852 21.9812L24.4685 24.0333L28 17.9667L24.4179 15.9192C24.5351 15.286 24.5942 14.6437 24.5945 14ZM17.5315 14C17.5315 14.6922 17.3244 15.3689 16.9363 15.9445C16.5483 16.5201 15.9967 16.9687 15.3514 17.2336C14.7061 17.4985 13.9961 17.5678 13.311 17.4327C12.626 17.2977 11.9967 16.9644 11.5029 16.4749C11.009 15.9854 10.6726 15.3617 10.5364 14.6828C10.4001 14.0039 10.47 13.3001 10.7373 12.6606C11.0046 12.0211 11.4573 11.4744 12.038 11.0899C12.6188 10.7053 13.3015 10.5 14 10.5C14.9366 10.5 15.8349 10.8687 16.4971 11.5251C17.1594 12.1815 17.5315 13.0717 17.5315 14Z" fill="#707070"/>
</svg>
