<svg width="30" height="31" viewBox="0 0 30 31" fill="none" xmlns="http://www.w3.org/2000/svg">
<path d="M13.57 25.7658H5.04447C4.33949 25.7658 3.766 25.1923 3.766 24.4874C3.766 24.133 3.90846 23.8152 4.14224 23.5815C4.37236 23.3513 4.6938 23.2052 5.04812 23.2052H13.2121V23.1504C13.2121 21.8501 13.4714 20.6118 13.939 19.4794H5.04447C4.33949 19.4794 3.766 18.9059 3.766 18.2009C3.766 17.8466 3.90846 17.5288 4.14224 17.2951C4.37236 17.0649 4.6938 16.9188 5.04812 16.9188H15.506C17.2666 14.8587 19.882 13.5546 22.8006 13.5546C23.5202 13.5546 24.2215 13.635 24.8936 13.7848V4.38984C24.8936 3.48395 24.1521 2.74609 23.2499 2.74609H21.0874V4.33139C21.0874 5.94226 19.7761 7.25361 18.1652 7.25361C16.5543 7.25361 15.243 5.94226 15.243 4.33139V2.74609H9.38761V4.33139C9.38761 5.94226 8.07627 7.25361 6.4654 7.25361C4.85453 7.25361 3.54318 5.94226 3.54318 4.33139V2.74609H1.64374C0.737859 2.74609 0 3.48761 0 4.38984V28.7611C0 29.667 0.741511 30.4048 1.64374 30.4048H16.5215C15.1261 29.1958 14.0851 27.5922 13.57 25.7658ZM4.14224 11.016C4.37236 10.7858 4.6938 10.6397 5.04812 10.6397H19.8491C20.5541 10.6397 21.1276 11.2132 21.1276 11.9182C21.1276 12.2725 20.9851 12.5903 20.7514 12.8241C20.5212 13.0542 20.1998 13.2003 19.8455 13.2003H5.04447C4.33949 13.2003 3.766 12.6268 3.766 11.9218C3.766 11.5675 3.91211 11.2497 4.14224 11.016Z" fill="white"/>
<path d="M6.46597 5.69831C7.17095 5.69831 7.74444 5.12118 7.74444 4.41985V1.27847C7.74444 0.927802 7.60198 0.606359 7.3682 0.376235C7.13808 0.146111 6.81663 0 6.46597 0C5.76098 0 5.1875 0.577137 5.1875 1.27847V4.41985C5.1875 5.12483 5.76464 5.69831 6.46597 5.69831ZM18.1694 5.69831C18.8744 5.69831 19.4479 5.12118 19.4479 4.41985V1.27847C19.4479 0.927802 19.3054 0.606359 19.0717 0.376235C18.8415 0.146111 18.5201 0 18.1694 0C17.4644 0 16.891 0.577137 16.891 1.27847V4.41985C16.891 5.12483 17.4644 5.69831 18.1694 5.69831ZM22.8011 15.9553C18.8233 15.9553 15.6015 19.1807 15.6015 23.1549C15.6015 27.1291 18.8269 30.3545 22.8011 30.3545C26.7753 30.3545 30.0007 27.1327 30.0007 23.1549C30.0007 19.177 26.779 15.9553 22.8011 15.9553ZM26.6913 25.7337H20.5218V26.7784L18.469 24.9009L20.5218 23.0234V24.0681H26.6913V25.7337ZM25.0841 23.2864V22.2417H18.9146V20.576H25.0841V19.5313L27.137 21.4089L25.0841 23.2864Z" fill="white"/>
</svg>
