<svg width="15" height="15" viewBox="0 0 15 15" fill="none" xmlns="http://www.w3.org/2000/svg">
<path d="M7.5 0C5.51154 0.00215765 3.60513 0.795591 2.19907 2.20621C0.793018 3.61683 0.00215068 5.52942 0 7.52434C0.375 17.4941 14.625 17.4897 15 7.52434C14.9978 5.52942 14.207 3.61683 12.8009 2.20621C11.3949 0.795591 9.48846 0.00215765 7.5 0ZM7.5 1.88108C8.60994 1.88215 9.69482 2.2122 10.6184 2.82978C11.542 3.44736 12.2631 4.32494 12.6912 5.35231L8.765 6.14049C7.90061 6.31355 7.01064 6.31355 6.14625 6.14049L2.30188 5.36861C2.72801 4.33715 3.44914 3.45544 4.37427 2.83476C5.2994 2.21407 6.38706 1.88222 7.5 1.88108ZM1.87875 7.71683L3.85 8.11249C4.20983 8.1847 4.54941 8.33551 4.84461 8.55419C5.13982 8.77287 5.38342 9.05408 5.55812 9.37783L5.94875 10.1008C6.14595 10.4668 6.24947 10.8761 6.25 11.2921V13.0246C5.04057 12.7461 3.95657 12.075 3.16619 11.1152C2.37582 10.1555 1.92326 8.96094 1.87875 7.71683ZM8.75 13.0271V11.2947C8.75053 10.8786 8.85405 10.4693 9.05125 10.1033L9.44188 9.38034C9.61658 9.05658 9.86018 8.77538 10.1554 8.5567C10.4506 8.33801 10.7902 8.18721 11.15 8.115L13.1213 7.71934C13.0767 8.96345 12.6242 10.158 11.8338 11.1177C11.0434 12.0775 9.95943 12.7486 8.75 13.0271Z" fill="#FDC100"/>
</svg>
